<?xml version="1.0" encoding="utf-8"?>
<svg xmlns="http://www.w3.org/2000/svg">
<symbol id="aetna" viewBox="0 0 172 44">
  <defs>
    <path id="a" d="M163.772 43.972H0V.405h163.772z"/>
  </defs>
  <g fill="none" fill-rule="evenodd" opacity=".649">
    <mask id="b" fill="#fff">
      <use xlink:href="#a"/>
    </mask>
    <path fill="#6C95A3" d="M92.874 35.643c-1.294.762-2.866.85-4.327.694-.832-.12-1.693-.426-2.22-1.107-.8-.993-.907-2.313-1.04-3.526-.042-1.092-.026-2.186-.03-3.278.008-3.864-.013-7.728.012-11.592 2.32.018 4.64-.003 6.96.01.06-.466.02-.937.03-1.404.01-1.974-.02-3.95 0-5.923-2.28-.05-4.57.014-6.85-.03l-.04-.047c-.06-1.505.06-3.01.1-4.514.12-.787.04-1.588.17-2.375-.02-.71.13-1.42.1-2.14-2.17.05-4.34-.04-6.5.05-.18 1.48-.47 2.94-.92 4.36-.49 1.52-1.27 2.99-2.49 4.06-1.43 1.28-3.32 1.9-5.19 2.2-.04 1.93.04 3.85-.01 5.77h3.9c-.02 1.08.01 2.15-.06 3.22-.01 2.28-.06 4.55-.06 6.83-.07.84-.03 1.67-.04 2.5.01 2.22-.15 4.45.22 6.65.28 1.69.91 3.37 2.06 4.68 1.14 1.35 2.77 2.2 4.46 2.66 1.97.53 4.04.63 6.07.57.72-.09 1.46-.02 2.18-.14 1.33-.11 2.66-.3 3.95-.62-.09-1.84-.23-3.68-.33-5.51-.09-.67-.02-1.36-.16-2.02M56.4 21.7c-1.02.95-2.43 1.306-3.78 1.47-.394.02-.78.05-1.17.1-.846.02-1.695.02-2.542-.01-.43-.06-.86-.08-1.29-.08-.03-.8.05-1.61.13-2.41.21-1.58.67-3.21 1.78-4.41.923-1 2.3-1.48 3.65-1.52 1.085-.04 2.243.13 3.128.793.835.587 1.25 1.613 1.29 2.604.06 1.25-.29 2.584-1.22 3.47zM19.09 37.02c-1.85.345-3.78.513-5.63.077-.83-.2-1.634-.63-2.123-1.338-.55-.79-.69-1.78-.66-2.71-.03-1.04.31-2.13 1.08-2.85.608-.64 1.45-1 2.288-1.24 1.633-.45 3.344-.42 5.023-.39-.04 1.2.05 2.41-.06 3.61 0 .64-.01 1.28.05 1.92-.02.97.07 1.94.03 2.91zm47.08-24.304c-.268-.368-.55-.728-.915-1.007-1.31-1.18-2.938-1.95-4.624-2.43-2.62-.77-5.38-.89-8.11-.82-2.26.1-4.54.37-6.69 1.09-1.74.55-3.39 1.43-4.75 2.64-.56.59-1.18 1.15-1.66 1.82-1.92 2.6-2.8 5.81-3.12 8.97-.49 0-.98-.02-1.47-.08-1.1-.04-2.2-.05-3.3-.05-.47-.02-.95.04-1.42-.06.01-.67.1-1.34.03-2-.02-1.87-.21-3.75-.78-5.53-.59-1.77-1.63-3.45-3.2-4.54-2-1.41-4.49-1.93-6.89-2.19-.31-.03-.63.04-.94.02l.13-.14c-.54.02-1.08.03-1.62-.03-.21.03-.43.01-.65-.02-1.2-.08-2.39.07-3.59.08-.4.05-.81.09-1.21.09-2.79.26-5.61.69-8.24 1.69 0 1.02.13 2.03.14 3.05.12 1.51.14 3.03.27 4.54.43-.16.828-.4 1.25-.56 1.79-.81 3.69-1.37 5.63-1.7.29-.07.64.01.87-.21l-.06.1c.99-.09 1.998-.16 2.99-.04 1.308.09 2.7.43 3.628 1.41.95.93 1.24 2.3 1.39 3.57.01.78.13 1.57-.01 2.35-1.834 0-3.67-.06-5.495.1-1.54.11-3.08.32-4.59.66-2.26.53-4.54 1.35-6.3 2.9C1.46 27.58.54 29.2.208 30.92c-.28 1.24-.174 2.52-.15 3.78l.18.094c-.034.07-.07.14-.11.21.22 2.22 1.072 4.46 2.772 5.99 1.555 1.4 3.6 2.16 5.643 2.54 2.08.39 4.21.44 6.32.39.96-.11 1.93-.01 2.884-.14 2.49-.11 4.98-.35 7.48-.43-.14-.04-.29-.07-.43-.1.48.073.97.026 1.46.02.62-.023 1.24.01 1.86-.066.73-.02 1.46-.01 2.19-.02-.57-3.518-.49-7.094-.49-10.644.03-1.055.08-2.114.1-3.173.01-.24-.02-.49.08-.71.6.03 1.21-.02 1.81.05 1.47.02 2.94.04 4.41.14.23 2.6.76 5.2 1.93 7.56.69 1.36 1.59 2.62 2.73 3.63 1.28 1.16 2.83 2.01 4.46 2.58 1.9.69 3.91 1.03 5.92 1.22 2.52.21 5.07.22 7.6-.01 2.57-.25 5.15-.66 7.56-1.63 0-.64.01-1.29-.08-1.93-.056-.55-.01-1.1-.08-1.64-.088-.6-.04-1.21-.09-1.82-.1-.73-.02-1.47-.16-2.2-2.97 1.64-6.38 2.52-9.784 2.43-.68-.08-1.37-.07-2.04-.233-1.32-.255-2.62-.732-3.7-1.536-1.1-.81-1.92-1.985-2.35-3.277-.33-.974-.46-2.01-.43-3.04.8.016 1.6.03 2.4.04.973-.03 1.946.13 2.92.01 1.8-.01 3.59-.15 5.36-.463 1.66-.295 3.31-.75 4.81-1.51 1.43-.74 2.743-1.775 3.593-3.15 1.18-1.83 1.49-4.08 1.33-6.21-.15-1.78-.76-3.56-1.93-4.94zm86.46 24.3c-.983.154-1.965.342-2.963.332-1.28.01-2.63-.052-3.778-.675-.81-.425-1.37-1.23-1.56-2.106-.2-.975-.24-2.013.07-2.97.22-.71.69-1.34 1.29-1.777.81-.6 1.8-.894 2.79-1.067 1.33-.243 2.7-.19 4.05-.186.01 1.84-.02 3.68-.02 5.518.05-.012.11-.022.17-.028l-.15.18c.08.924.04 1.854.07 2.78zm10.45-20.89c-.41-1.628-1.17-3.193-2.326-4.433-.768-.775-1.693-1.388-2.69-1.834-1.988-.92-4.19-1.21-6.352-1.39-.648-.02-1.294-.03-1.94-.04-.675-.12-1.366-.01-2.047-.04-.814.12-1.644.01-2.454.15-.76.02-1.52.13-2.27.23-2.18.27-4.36.71-6.42 1.5.1.98.07 1.96.19 2.94 0 .93.12 1.86.12 2.79.07.6.09 1.21.09 1.82.4-.07.73-.32 1.1-.47 1.14-.51 2.32-.95 3.52-1.27 2.36-.64 4.86-.96 7.28-.5.86.21 1.73.53 2.36 1.17.66.6 1.02 1.45 1.23 2.3.3 1.21.32 2.46.28 3.7-1.86 0-3.74-.06-5.6.1-2.53.21-5.06.62-7.43 1.55-1.37.56-2.7 1.29-3.75 2.35-1.34 1.29-2.16 3.07-2.37 4.91-.02.64-.14 1.28-.07 1.92.07.48.04.98.11 1.46.17 1.26.47 2.52 1.07 3.66.72 1.42 1.89 2.61 3.29 3.39 1.82 1.02 3.91 1.48 5.98 1.68.57.1 1.16.04 1.74.12 2.47.07 4.93-.08 7.39-.25.72.01 1.42-.13 2.14-.12.78-.11 1.57-.07 2.35-.16 1.14.01 2.27-.16 3.41-.13.94-.09 1.88-.07 2.82-.07-.01-.25-.05-.49-.07-.74-.56-5.6.05-23.78-.61-26.36z" mask="url(#b)"/>
    <path fill="#6C95A3" d="M129.48 40.46c-.026.198-.047.398-.072.596-.104-2.763-.236-5.525-.25-8.29-.014-1.314-.077-2.627-.055-3.94-.027-2.537.053-5.07.06-7.606.03-2.22-.163-4.49-.997-6.57-.346-.875-.868-1.67-1.433-2.42-1.076-1.267-2.55-2.163-4.12-2.704-1.996-.71-4.125-.957-6.23-1.062-1.436-.01-2.873-.024-4.307.017-.67.11-1.353.05-2.022.14-3.44.28-6.872.73-10.326.82-.706.03-1.413 0-2.115.08.02.54.022 1.07.083 1.6.06.8.032 1.61.104 2.41.048 1.19.018 2.38.11 3.57.057 5.78.054 11.55.004 17.33-.09 1.19-.055 2.37-.092 3.56-.02 1.76-.14 3.51-.208 5.26h11.53c-.16-1.84-.195-3.69-.3-5.54-.018-1.57-.122-3.14-.102-4.71-.037-.9.02-1.8-.077-2.7.03-1.95-.06-3.92.062-5.87-.01-1.76.03-3.53.037-5.3.055-1 .064-2 .072-3l.56-.18c1.352-.36 2.76-.54 4.16-.49.98.07 2.01.22 2.826.81.637.43 1.084 1.09 1.35 1.79.344.87.467 1.8.552 2.73-.01.71.098 1.41.072 2.12.036 2.76.047 5.52.02 8.27-.02 1.06.02 2.13-.073 3.19-.007 1.12-.018 2.24-.04 3.36.013.59-.1 1.16-.074 1.75.01 1.27-.13 2.53-.13 3.8 3.83 0 7.67.01 11.51 0-.08-.91-.19-1.83-.1-2.75"/>
    <path fill="#999" d="M167.665 11.37h.482c.504 0 .824-.272.824-.684 0-.467-.34-.67-.84-.675-.22 0-.39.03-.46.05v1.32zm-.472-1.643c.24-.048.58-.075.905-.075.505 0 .83.09 1.057.295.184.16.287.407.287.685 0 .477-.303.793-.688.922v.016c.282.096.45.353.537.728.12.504.21.852.29.99h-.49c-.06-.1-.14-.412-.24-.86-.11-.5-.3-.687-.73-.703h-.44v1.564h-.47V9.72z"/>
    <path fill="#999" d="M168.426 9.017c-1.368 0-2.48 1.1-2.48 2.454s1.112 2.46 2.48 2.46c1.37 0 2.482-1.1 2.482-2.45s-1.113-2.45-2.482-2.45zm0 5.57c-1.738 0-3.153-1.398-3.153-3.116 0-1.72 1.415-3.11 3.153-3.11 1.74 0 3.154 1.4 3.154 3.12 0 1.72-1.415 3.12-3.154 3.12z"/>
  </g>
</symbol>

<symbol id="cvs" viewBox="0 0 316 40">
  <defs>
    <path id="a" d="M.667 38.247h63.335V.313H.667v37.934z"/>
    <path id="c" d="M316 39.95V.655H.05V39.95z"/>
  </defs>
  <g fill="none" fill-rule="evenodd" opacity=".649">
    <g transform="translate(158.854 1.702)">
      <mask id="b" fill="#fff">
        <use xlink:href="#a"/>
      </mask>
      <path fill="#6C95A3" mask="url(#b)" d="M35.652.313H23.886V4.06h3.84v11.648H8.47V4.06h3.938V.313H.668V4.06h3.38v29.875H.668v3.722h11.74v-3.722H8.47V19.91h19.255v14.025h-3.84v3.722h11.767v-3.722h-3.43V4.06h3.43V.313m15.28 10.623c-3.953 0-7.12 1.223-9.5 3.668-2.38 2.446-3.57 5.69-3.57 9.732 0 4.21 1.196 7.586 3.584 10.133 2.388 2.54 5.533 3.82 9.434 3.82 2.783 0 5.28-.75 7.493-2.25s3.888-3.56 5.025-6.18h-4.303c-.84 1.38-1.722 2.57-3.043 3.32-1.32.75-2.98 1.35-4.535 1.35-2.467 0-4.79-1.11-6.426-2.61-1.63-1.51-2.54-3.48-2.71-5.91h21.63v-.61c0-4.38-1.2-7.88-3.59-10.52-2.39-2.64-5.55-3.96-9.47-3.96m-8.56 11.29c.35-2.38 1.23-4.2 2.64-5.44 1.41-1.25 3.43-2.28 5.78-2.28s4.54.8 5.95 2.04c1.41 1.24 2.11 3.28 2.47 5.66H42.67"/>
    </g>
    <path fill="#6C95A3" d="M239.286 12.638c-3.57 0-6.57 1.315-9 3.946-2.433 2.63-3.648 5.874-3.648 9.73 0 3.86 1.21 7.094 3.634 9.705 2.423 2.61 5.427 3.91 9.014 3.91 1.854 0 3.517-.35 4.986-1.04 1.47-.7 2.703-1.72 3.7-3.06v3.46h8.4v-3.9h-3.754V17.23h3.753v-3.9h-8.39v3.405c-1.1-1.365-2.37-2.39-3.82-3.072-1.44-.683-3.06-1.025-4.86-1.025m.32 23.61c-2.48 0-4.56-.937-6.23-2.813-1.66-1.875-2.5-4.25-2.5-7.12 0-2.89.82-5.26 2.45-7.108 1.63-1.846 3.73-2.77 6.29-2.77 2.49 0 4.56.928 6.22 2.784 1.66 1.86 2.49 4.23 2.49 7.1 0 2.87-.83 5.25-2.49 7.12-1.66 1.88-3.73 2.82-6.22 2.82M266 1.5h-8.586v3.58h4.115v28.88c.09 4.81 3.59 5.673 6.09 5.673 1.4 0 2.49-.27 2.49-.27v-3.57s-.38.08-.91.08c-1.17 0-3.04-.37-3.21-2.75V1.5m12.1 5.25h-4.22v6.133h-4.32v3.57h4.32v16.525c-.1 5.458 3.21 6.584 5.15 6.584.79 0 1.49-.022 2.08-.063.59-.05 2.25-.11 2.76-.2v-3.77s-2.84.25-3.02.25c-1.19 0-1.95-.2-2.28-.6-.33-.4-.5-1.55-.5-3.46V16.45h5.37v-3.57h-5.37V6.75"/>
    <mask id="d" fill="#fff">
      <use xlink:href="#c"/>
    </mask>
    <path fill="#6C95A3" d="M294.13 1.494H286v3.412h3.658V35.79h-3.66v3.57h11.815v-3.57h-4.187l.058-14.31c.763-3.117 4.39-5.498 7.722-5.498.26 0 .516.015.77.044 1.298.15 3.183.615 4.06 1.672.643.777 2.395 1.705 2.452 7.408V35.79h-4.502v3.57H316v-3.57h-3.146l-.058-10.986s.343-5.685-2.55-8.98c-2.096-2.388-6.074-3.575-7.428-3.575-1.575 0-3.27.08-4.684.73-1.415.65-2.617 1.22-4.005 2.58V1.49M71.29 1.11c-6.08 0-10.78 1.67-14.1 5.01-3.32 3.34-4.98 8.125-4.98 14.345 0 4.666.94 8.494 2.83 11.484 1.89 3 4.13 5.08 6.73 6.27C64.38 39.41 67.73 40 71.83 40c3.38 0 6.165-.485 8.354-1.46 2.187-.975 4.02-2.42 5.495-4.335 1.48-1.914 3.75-5.703 3.75-9.285l-10.91-.154c-.52 2.377-1.16 3.393-2.3 4.642-1.14 1.248-2.83 1.87-5.06 1.87-2.3 0-4.09-.77-5.36-2.317-1.27-1.54-1.91-4.4-1.91-8.57 0-3.36.53-5.83 1.59-7.4 1.4-2.11 3.43-3.17 6.07-3.17 1.16 0 2.22.24 3.16.72s1.74 1.17 2.39 2.05c.394.53.77 1.37 1.13 2.52l11.16.16C88.367 9.24 85.21 5.91 82.49 4c-2.72-1.912-6.455-2.87-11.21-2.87m52.858.644h-11.83l-6.54 24.01-6.26-24.01H87.32l12.023 37.6h12.638l12.17-37.62m15.27-.64c-3.93 0-7.02.5-9.28 1.48-2.25.986-4.41 2.26-5.54 3.978-1.12 1.72-1.68 3.547-1.68 5.48 0 2.95.93 5.77 3.038 7.77 2.568 2.43 6.226 3.59 11.34 4.73 3.123.69 5.44.82 6.3 1.59.86.77.716 1.7.675 2.68-.083 2.046-2.912 2.752-4.58 2.77h-.092c-3.866 0-5.4-2.55-5.64-4.333l-11.38-.016c.326 3.8 1.123 6.62 3.593 9.08 2.47 2.46 6.913 3.69 13.332 3.69 3.654 0 6.683-.53 9.086-1.58 2.4-1.05 4.27-2.6 5.61-4.63 1.34-2.04 2-4.26 2-6.67 0-2.05-.5-3.91-1.51-5.57-1.01-1.66-2.71-2.64-4.91-3.76-2.21-1.12-5.99-2.018-11.09-3.11-2.06-.43-4.13-1.08-4.06-3.33.04-1.37 2.23-2.61 3.59-2.61 2.44 0 5.47 1.27 5.47 3.88l11.16-.04c-.48-3.9-1.894-7.015-4.425-8.8-2.53-1.788-6.21-2.68-11.03-2.68M47 10.7c-2-1.96-8.07-7.855-9.84-9.576C36.85.82 36.43.65 35.99.65h-3.33c-.463 0-.907.19-1.226.526l-7.072 7.45-.542.04-.542-.04-7.074-7.448C15.884.842 15.44.65 14.977.65h-3.335c-.44 0-.862.17-1.177.476-1.77 1.72-7.838 7.62-9.843 9.576-.4.39-.622.92-.622 1.477v3.55c0 .55.223 1.08.62 1.47L23.82 40l23.2-22.788c.397-.39.62-.92.62-1.474v-3.554c0-.556-.224-1.088-.622-1.477" mask="url(#d)"/>
  </g>
</symbol>

<symbol id="humanas" viewBox="0 0 222 44">
  <defs>
    <path id="a" d="M.036 43.963H222V.09H.036z"/>
  </defs>
  <g fill="none" fill-rule="evenodd" opacity=".649">
    <mask id="b" fill="#fff">
      <use xlink:href="#a"/>
    </mask>
    <path fill="#6C95A3" d="M101.01 9.92c-3.614 0-7.048 1.436-8.566 2.53-2.337-1.79-5.522-2.53-9.463-2.53-5.993 0-10.943 1.885-11.67 2.177V43.63h6.45c.635 0 1.146-.53 1.146-1.234v-25.34c1.362-.39 2.612-.573 3.738-.573 4.46 0 5.546 1.823 5.546 6.322v19.59c0 .573.444 1.235 1.15 1.235h5.314c.727 0 1.153-.572 1.153-1.234v-24.36c1.192-1.05 2.88-1.553 4.448-1.553 3.445 0 4.84 1.577 4.84 5.876v20.035c0 .52.384 1.234 1.145 1.234h6.44V21.3c0-8.467-5.186-11.38-11.67-11.38zM0 43.62h6.82c.51 0 1.15-.5 1.15-1.173v-18.33h12.585c2.096 0 3.645 1.73 3.645 3.51v14.82c0 .624.525 1.174 1.13 1.174h6.83V.09h-6.83c-.573 0-1.13.514-1.13 1.094v16.35H11.1c-1.74 0-3.13-1.462-3.13-3.1V1.184C7.97.77 7.556.09 6.82.09H0v43.53zm202.137-8.04c-1.402 1.2-2.495 1.978-5.468 2.075-4.25 0-6.076-2.64-6.076-8.28v-4.592c0-6.494 2.347-8.278 6.074-8.278 3.132 0 4.832.26 5.467.397V35.58zM196.67 9.95c-8.383 0-13.672 4.63-13.672 14.53v4.967c0 10.97 5.72 14.532 11.92 14.532 3.054 0 6.192-2.174 7.22-3.563v2.05c0 .524.462 1.153 1.14 1.153h6.463V11.847s-6.36-1.897-13.07-1.897zm-59.59 25.63c-1.4 1.2-2.493 1.978-5.467 2.075-4.25 0-6.076-2.64-6.076-8.28v-4.592c0-6.494 2.35-8.278 6.076-8.278 3.13 0 4.833.26 5.468.397V35.58zm-5.467-25.63c-8.38 0-13.67 4.63-13.67 14.53v4.967c0 10.97 5.72 14.532 11.92 14.532 3.052 0 6.19-2.174 7.218-3.563v2.05c0 .524.466 1.153 1.144 1.153h6.46V11.847s-6.36-1.896-13.07-1.896zm25.82 33.677c.615 0 1.197-.516 1.197-1.23v-25.27c1.87-.436 3.756-.645 5.65-.645 4.238 0 5.77 1.605 5.77 6.32v19.592c0 .803.6 1.23 1.148 1.23h6.476V22.752c0-9.694-5.023-12.843-13.163-12.843-6.503 0-12.94 1.91-13.476 2.06v31.66h6.4zM58.546 10.503c-.615 0-1.198.515-1.198 1.232v25.04c-1.87.44-3.755.648-5.65.648-4.237 0-5.77-1.606-5.77-6.32V11.736c0-.802-.6-1.232-1.148-1.232h-6.475v20.653C38.305 40.847 43.328 44 51.47 44c6.503 0 12.937-1.907 13.476-2.06V10.504h-6.4zm159 29.28h.616c.592 0 .828-.29.828-.69 0-.522-.49-.61-.92-.61h-.523v1.3zm.544-2c1.035 0 1.71.31 1.71 1.245 0 .65-.283 1.1-.865 1.338l.25.45c.204.358.458.733.765 1.154.052.077-.082.117-.297.117h-.246c-.254 0-.325-.05-.37-.102-.216-.295-.406-.587-.568-.878l-.37-.654h-.554v1.54c0 .043-.084.094-.246.094h-.332c-.16 0-.257-.05-.257-.095v-4.208h1.38zm-2.955 2.182c0 1.867 1.316 3.318 3.038 3.318 1.713 0 3.05-1.432 3.05-3.318 0-1.863-1.315-3.315-3.03-3.315-1.712 0-3.058 1.452-3.058 3.315zm6.865 0c0 2.213-1.68 3.985-3.818 3.985-2.15 0-3.85-1.772-3.85-3.985 0-2.217 1.693-3.985 3.86-3.985 2.148 0 3.808 1.768 3.808 3.985z" mask="url(#b)"/>
  </g>

</symbol>
<symbol id="merck" viewBox="0 0 216 64">
  <g fill="#6C95A3" fill-rule="evenodd" opacity=".649">
    <path d="M186.335 17.61v6.775c-.086.66-.98-.315-1.472-.636-1.757-1.13-4.28-2.35-7.998-1.91-4.906.58-8.8 4.96-8.837 10.58-.034 5.25 3.8 9.92 8.628 10.59 3.972.55 7.41-1.12 9.68-2.967v7.2c-12.144 5.196-26.67-2.26-25.25-16.73 1.066-10.828 13.768-18.35 25.25-12.914M89.34 16.33c2.01 5.45 4.23 10.7 6.31 16.09 2.36-5.17 4.43-10.647 6.52-16.09h10.1V48.1h-6.738V25.864c-3.486 7.222-6.553 14.864-9.68 22.442-3.42-7.29-6.475-14.937-9.68-22.442-.49 6.986-.07 14.895-.21 22.232h-6.73V16.34h10.1m45.028 0v5.502h-11.57v7.2c3.3.493 7.505.07 11.15.21v5.297h-11.15v7.83c3.437.49 7.785.07 11.576.21v5.5H116.06V16.34h18.308"/>
    <path d="M154.352 34.335c2.798 4.737 6.855 9.335 9.258 13.762-2.614-.59-4.822.807-7.155 0-1.043-.36-2.383-3.063-3.157-4.235-2.74-4.15-6.348-9.074-8.414-13.13 10.724 2.23 10.218-11.882-.632-9.314v26.677h-6.732V16.338c6.596.25 15.68-1.2 19.567 2.538 4.105 3.953 3.682 13.784-2.735 15.46m41.872-17.997v31.75h-6.735c.14-10.52-.28-21.6.21-31.76h6.52m18.09 0c.58-.03-.22 1.09-.63 1.69-.4.58-1.06 1.12-1.48 1.692-2.49 3.454-5.287 7.53-7.784 11.01 3.677 5.84 8.33 11.816 11.577 17.37-2.755-.57-4.985.78-7.365 0-1.137-.378-2.354-3.046-3.156-4.237-2.842-4.23-6.33-9.165-8.83-12.918 3.254-5.05 6.65-9.963 10.31-14.61h7.36m-198.405 0c.65 9.15 5.44 14.14 13.676 15.66-.13.63-.9.54-1.264.638-6.938 1.843-12.036 6.73-12.416 15.456C5.69 47.587-2.193 38.9.55 28.197c1.635-6.36 7.158-11.42 15.36-11.856C16.28 7.28 23.04.33 31.903.46 40.72.584 46.868 6.974 47.47 15.705c.018.3.033.598-.21.634H15.91m31.983 31.75c-.863 4.574-1.878 8.01-4.418 10.794-2.503 2.744-6.383 4.853-10.73 5.08-9.154.48-16.37-6.19-16.833-15.877h31.77c-.762-9.255-5.794-14.21-14.096-15.88 8.292-1.68 13.326-6.636 14.096-15.88 8.645.42 16.748 6.986 15.57 17.997-.784 7.318-6.87 13.32-15.36 13.764"/>
  </g>
</symbol></svg>