<svg xmlns="http://www.w3.org/2000/svg" viewBox="0 0 172 44" xmlns:xlink="http://www.w3.org/1999/xlink">
  <defs>
    <path id="a" d="M163.772 43.972H0V.405h163.772z"/>
  </defs>
  <g fill="none" fill-rule="evenodd" opacity=".649">
    <mask id="b" fill="#fff">
      <use xlink:href="#a"/>
    </mask>
    <path fill="#6C95A3" d="M92.874 35.643c-1.294.762-2.866.85-4.327.694-.832-.12-1.693-.426-2.22-1.107-.8-.993-.907-2.313-1.04-3.526-.042-1.092-.026-2.186-.03-3.278.008-3.864-.013-7.728.012-11.592 2.32.018 4.64-.003 6.96.01.06-.466.02-.937.03-1.404.01-1.974-.02-3.95 0-5.923-2.28-.05-4.57.014-6.85-.03l-.04-.047c-.06-1.505.06-3.01.1-4.514.12-.787.04-1.588.17-2.375-.02-.71.13-1.42.1-2.14-2.17.05-4.34-.04-6.5.05-.18 1.48-.47 2.94-.92 4.36-.49 1.52-1.27 2.99-2.49 4.06-1.43 1.28-3.32 1.9-5.19 2.2-.04 1.93.04 3.85-.01 5.77h3.9c-.02 1.08.01 2.15-.06 3.22-.01 2.28-.06 4.55-.06 6.83-.07.84-.03 1.67-.04 2.5.01 2.22-.15 4.45.22 6.65.28 1.69.91 3.37 2.06 4.68 1.14 1.35 2.77 2.2 4.46 2.66 1.97.53 4.04.63 6.07.57.72-.09 1.46-.02 2.18-.14 1.33-.11 2.66-.3 3.95-.62-.09-1.84-.23-3.68-.33-5.51-.09-.67-.02-1.36-.16-2.02M56.4 21.7c-1.02.95-2.43 1.306-3.78 1.47-.394.02-.78.05-1.17.1-.846.02-1.695.02-2.542-.01-.43-.06-.86-.08-1.29-.08-.03-.8.05-1.61.13-2.41.21-1.58.67-3.21 1.78-4.41.923-1 2.3-1.48 3.65-1.52 1.085-.04 2.243.13 3.128.793.835.587 1.25 1.613 1.29 2.604.06 1.25-.29 2.584-1.22 3.47zM19.09 37.02c-1.85.345-3.78.513-5.63.077-.83-.2-1.634-.63-2.123-1.338-.55-.79-.69-1.78-.66-2.71-.03-1.04.31-2.13 1.08-2.85.608-.64 1.45-1 2.288-1.24 1.633-.45 3.344-.42 5.023-.39-.04 1.2.05 2.41-.06 3.61 0 .64-.01 1.28.05 1.92-.02.97.07 1.94.03 2.91zm47.08-24.304c-.268-.368-.55-.728-.915-1.007-1.31-1.18-2.938-1.95-4.624-2.43-2.62-.77-5.38-.89-8.11-.82-2.26.1-4.54.37-6.69 1.09-1.74.55-3.39 1.43-4.75 2.64-.56.59-1.18 1.15-1.66 1.82-1.92 2.6-2.8 5.81-3.12 8.97-.49 0-.98-.02-1.47-.08-1.1-.04-2.2-.05-3.3-.05-.47-.02-.95.04-1.42-.06.01-.67.1-1.34.03-2-.02-1.87-.21-3.75-.78-5.53-.59-1.77-1.63-3.45-3.2-4.54-2-1.41-4.49-1.93-6.89-2.19-.31-.03-.63.04-.94.02l.13-.14c-.54.02-1.08.03-1.62-.03-.21.03-.43.01-.65-.02-1.2-.08-2.39.07-3.59.08-.4.05-.81.09-1.21.09-2.79.26-5.61.69-8.24 1.69 0 1.02.13 2.03.14 3.05.12 1.51.14 3.03.27 4.54.43-.16.828-.4 1.25-.56 1.79-.81 3.69-1.37 5.63-1.7.29-.07.64.01.87-.21l-.06.1c.99-.09 1.998-.16 2.99-.04 1.308.09 2.7.43 3.628 1.41.95.93 1.24 2.3 1.39 3.57.01.78.13 1.57-.01 2.35-1.834 0-3.67-.06-5.495.1-1.54.11-3.08.32-4.59.66-2.26.53-4.54 1.35-6.3 2.9C1.46 27.58.54 29.2.208 30.92c-.28 1.24-.174 2.52-.15 3.78l.18.094c-.034.07-.07.14-.11.21.22 2.22 1.072 4.46 2.772 5.99 1.555 1.4 3.6 2.16 5.643 2.54 2.08.39 4.21.44 6.32.39.96-.11 1.93-.01 2.884-.14 2.49-.11 4.98-.35 7.48-.43-.14-.04-.29-.07-.43-.1.48.073.97.026 1.46.02.62-.023 1.24.01 1.86-.066.73-.02 1.46-.01 2.19-.02-.57-3.518-.49-7.094-.49-10.644.03-1.055.08-2.114.1-3.173.01-.24-.02-.49.08-.71.6.03 1.21-.02 1.81.05 1.47.02 2.94.04 4.41.14.23 2.6.76 5.2 1.93 7.56.69 1.36 1.59 2.62 2.73 3.63 1.28 1.16 2.83 2.01 4.46 2.58 1.9.69 3.91 1.03 5.92 1.22 2.52.21 5.07.22 7.6-.01 2.57-.25 5.15-.66 7.56-1.63 0-.64.01-1.29-.08-1.93-.056-.55-.01-1.1-.08-1.64-.088-.6-.04-1.21-.09-1.82-.1-.73-.02-1.47-.16-2.2-2.97 1.64-6.38 2.52-9.784 2.43-.68-.08-1.37-.07-2.04-.233-1.32-.255-2.62-.732-3.7-1.536-1.1-.81-1.92-1.985-2.35-3.277-.33-.974-.46-2.01-.43-3.04.8.016 1.6.03 2.4.04.973-.03 1.946.13 2.92.01 1.8-.01 3.59-.15 5.36-.463 1.66-.295 3.31-.75 4.81-1.51 1.43-.74 2.743-1.775 3.593-3.15 1.18-1.83 1.49-4.08 1.33-6.21-.15-1.78-.76-3.56-1.93-4.94zm86.46 24.3c-.983.154-1.965.342-2.963.332-1.28.01-2.63-.052-3.778-.675-.81-.425-1.37-1.23-1.56-2.106-.2-.975-.24-2.013.07-2.97.22-.71.69-1.34 1.29-1.777.81-.6 1.8-.894 2.79-1.067 1.33-.243 2.7-.19 4.05-.186.01 1.84-.02 3.68-.02 5.518.05-.012.11-.022.17-.028l-.15.18c.08.924.04 1.854.07 2.78zm10.45-20.89c-.41-1.628-1.17-3.193-2.326-4.433-.768-.775-1.693-1.388-2.69-1.834-1.988-.92-4.19-1.21-6.352-1.39-.648-.02-1.294-.03-1.94-.04-.675-.12-1.366-.01-2.047-.04-.814.12-1.644.01-2.454.15-.76.02-1.52.13-2.27.23-2.18.27-4.36.71-6.42 1.5.1.98.07 1.96.19 2.94 0 .93.12 1.86.12 2.79.07.6.09 1.21.09 1.82.4-.07.73-.32 1.1-.47 1.14-.51 2.32-.95 3.52-1.27 2.36-.64 4.86-.96 7.28-.5.86.21 1.73.53 2.36 1.17.66.6 1.02 1.45 1.23 2.3.3 1.21.32 2.46.28 3.7-1.86 0-3.74-.06-5.6.1-2.53.21-5.06.62-7.43 1.55-1.37.56-2.7 1.29-3.75 2.35-1.34 1.29-2.16 3.07-2.37 4.91-.02.64-.14 1.28-.07 1.92.07.48.04.98.11 1.46.17 1.26.47 2.52 1.07 3.66.72 1.42 1.89 2.61 3.29 3.39 1.82 1.02 3.91 1.48 5.98 1.68.57.1 1.16.04 1.74.12 2.47.07 4.93-.08 7.39-.25.72.01 1.42-.13 2.14-.12.78-.11 1.57-.07 2.35-.16 1.14.01 2.27-.16 3.41-.13.94-.09 1.88-.07 2.82-.07-.01-.25-.05-.49-.07-.74-.56-5.6.05-23.78-.61-26.36z" mask="url(#b)"/>
    <path fill="#6C95A3" d="M129.48 40.46c-.026.198-.047.398-.072.596-.104-2.763-.236-5.525-.25-8.29-.014-1.314-.077-2.627-.055-3.94-.027-2.537.053-5.07.06-7.606.03-2.22-.163-4.49-.997-6.57-.346-.875-.868-1.67-1.433-2.42-1.076-1.267-2.55-2.163-4.12-2.704-1.996-.71-4.125-.957-6.23-1.062-1.436-.01-2.873-.024-4.307.017-.67.11-1.353.05-2.022.14-3.44.28-6.872.73-10.326.82-.706.03-1.413 0-2.115.08.02.54.022 1.07.083 1.6.06.8.032 1.61.104 2.41.048 1.19.018 2.38.11 3.57.057 5.78.054 11.55.004 17.33-.09 1.19-.055 2.37-.092 3.56-.02 1.76-.14 3.51-.208 5.26h11.53c-.16-1.84-.195-3.69-.3-5.54-.018-1.57-.122-3.14-.102-4.71-.037-.9.02-1.8-.077-2.7.03-1.95-.06-3.92.062-5.87-.01-1.76.03-3.53.037-5.3.055-1 .064-2 .072-3l.56-.18c1.352-.36 2.76-.54 4.16-.49.98.07 2.01.22 2.826.81.637.43 1.084 1.09 1.35 1.79.344.87.467 1.8.552 2.73-.01.71.098 1.41.072 2.12.036 2.76.047 5.52.02 8.27-.02 1.06.02 2.13-.073 3.19-.007 1.12-.018 2.24-.04 3.36.013.59-.1 1.16-.074 1.75.01 1.27-.13 2.53-.13 3.8 3.83 0 7.67.01 11.51 0-.08-.91-.19-1.83-.1-2.75"/>
    <path fill="#999" d="M167.665 11.37h.482c.504 0 .824-.272.824-.684 0-.467-.34-.67-.84-.675-.22 0-.39.03-.46.05v1.32zm-.472-1.643c.24-.048.58-.075.905-.075.505 0 .83.09 1.057.295.184.16.287.407.287.685 0 .477-.303.793-.688.922v.016c.282.096.45.353.537.728.12.504.21.852.29.99h-.49c-.06-.1-.14-.412-.24-.86-.11-.5-.3-.687-.73-.703h-.44v1.564h-.47V9.72z"/>
    <path fill="#999" d="M168.426 9.017c-1.368 0-2.48 1.1-2.48 2.454s1.112 2.46 2.48 2.46c1.37 0 2.482-1.1 2.482-2.45s-1.113-2.45-2.482-2.45zm0 5.57c-1.738 0-3.153-1.398-3.153-3.116 0-1.72 1.415-3.11 3.153-3.11 1.74 0 3.154 1.4 3.154 3.12 0 1.72-1.415 3.12-3.154 3.12z"/>
  </g>
</svg>
