<svg xmlns="http://www.w3.org/2000/svg" width="273" height="271" viewBox="0 0 273 271" xmlns:xlink="http://www.w3.org/1999/xlink">
  <defs>
    <polygon id="a" points="0 192.155 147.558 192.155 147.558 .139 0 .139"/>
  </defs>
  <g fill="none" fill-rule="evenodd">
    <ellipse cx="136.924" cy="135.475" fill="#DFE8EB" rx="136.076" ry="135.475"/>
    <g transform="translate(61.327 35.84)">
      <polyline fill="#FFFFFF" stroke="#162A47" stroke-width="3.168" points="113.114 22.736 145.98 22.736 145.98 190.583 1.578 190.583 1.578 22.736 34.365 22.736"/>
      <polyline fill="#FFFFFF" stroke="#162A47" stroke-width="3.168" points="113.114 22.736 137.239 22.736 137.239 181.133 10.303 181.133 10.303 22.736 34.365 22.736"/>
      <polygon fill="#FFFFFF" stroke="#162A47" stroke-width="3.168" points="113.11 16.25 93.782 16.25 93.782 1.711 53.699 1.711 53.699 16.25 34.371 16.25 34.371 33.735 113.11 33.735"/>
      <path stroke="#162A47" stroke-width="2.88" d="M78.6053119,16.1848554 C78.6053119,13.5071739 76.4279188,11.3373557 73.7408894,11.3373557 C71.0538601,11.3373557 68.8748891,13.5071739 68.8748891,16.1848554 C68.8748891,18.8625368 71.0538601,21.0323551 73.7408894,21.0323551 C76.4279188,21.0323551 78.6053119,18.8625368 78.6053119,16.1848554"/>
      <path fill="#E5F3FF" d="M107.035882,65.8636846 C107.035882,53.2724496 96.7926672,43.06487 84.1574758,43.06487 C71.5222844,43.06487 61.2790698,53.2724496 61.2790698,65.8636846 C61.2790698,78.4549196 71.5222844,88.6624992 84.1574758,88.6624992 C96.7926672,88.6624992 107.035882,78.4549196 107.035882,65.8636846 L107.035882,65.8636846 Z"/>
      <path stroke="#162A47" stroke-width="3.168" d="M98.205479,63.3971124 C98.205479,50.8058774 87.9622644,40.5982978 75.327073,40.5982978 C62.6918816,40.5982978 52.4486669,50.8058774 52.4486669,63.3971124 C52.4486669,75.9883474 62.6918816,86.195927 75.327073,86.195927 C87.9622644,86.195927 98.205479,75.9883474 98.205479,63.3971124 L98.205479,63.3971124 Z"/>
      <mask id="b" fill="white">
        <use xlink:href="#a"/>
      </mask>
      <polygon stroke="#162A47" stroke-width="3.168" points="20.127 104.171 29.594 104.171 29.594 94.737 20.127 94.737" mask="url(#b)"/>
      <polygon stroke="#162A47" stroke-width="3.168" points="20.127 121.27 29.594 121.27 29.594 111.836 20.127 111.836" mask="url(#b)"/>
      <polygon stroke="#162A47" stroke-width="3.168" points="20.127 138.04 29.594 138.04 29.594 128.606 20.127 128.606" mask="url(#b)"/>
      <polygon stroke="#162A47" stroke-width="3.168" points="20.127 154.812 29.594 154.812 29.594 145.378 20.127 145.378" mask="url(#b)"/>
      <polygon stroke="#162A47" stroke-width="3.168" points="20.127 171.584 29.594 171.584 29.594 162.15 20.127 162.15" mask="url(#b)"/>
      <polygon fill="#162A47" points="36.301 101.156 126.762 101.156 126.762 97.749 36.301 97.749" mask="url(#b)"/>
      <polygon fill="#162A47" points="36.301 118.255 126.762 118.255 126.762 114.848 36.301 114.848" mask="url(#b)"/>
      <polygon fill="#162A47" points="36.301 135.028 126.762 135.028 126.762 131.62 36.301 131.62" mask="url(#b)"/>
      <polygon fill="#162A47" points="36.301 151.798 126.762 151.798 126.762 148.391 36.301 148.391" mask="url(#b)"/>
      <polygon fill="#162A47" points="36.301 168.57 126.762 168.57 126.762 165.163 36.301 165.163" mask="url(#b)"/>
      <polygon fill="#FFFFFF" stroke="#162A47" stroke-width="3.168" points="89.249 57.77 80.974 57.77 80.974 49.523 69.68 49.523 69.68 57.77 61.404 57.77 61.404 69.024 69.68 69.024 69.68 77.271 80.974 77.271 80.974 69.024 89.249 69.024" mask="url(#b)"/>
    </g>
  </g>
</svg>
