<svg xmlns="http://www.w3.org/2000/svg" viewBox="0 0 316 40" xmlns:xlink="http://www.w3.org/1999/xlink">
  <defs>
    <path id="a" d="M.667 38.247h63.335V.313H.667v37.934z"/>
    <path id="c" d="M316 39.95V.655H.05V39.95z"/>
  </defs>
  <g fill="none" fill-rule="evenodd" opacity=".649">
    <g transform="translate(158.854 1.702)">
      <mask id="b" fill="#fff">
        <use xlink:href="#a"/>
      </mask>
      <path fill="#6C95A3" mask="url(#b)" d="M35.652.313H23.886V4.06h3.84v11.648H8.47V4.06h3.938V.313H.668V4.06h3.38v29.875H.668v3.722h11.74v-3.722H8.47V19.91h19.255v14.025h-3.84v3.722h11.767v-3.722h-3.43V4.06h3.43V.313m15.28 10.623c-3.953 0-7.12 1.223-9.5 3.668-2.38 2.446-3.57 5.69-3.57 9.732 0 4.21 1.196 7.586 3.584 10.133 2.388 2.54 5.533 3.82 9.434 3.82 2.783 0 5.28-.75 7.493-2.25s3.888-3.56 5.025-6.18h-4.303c-.84 1.38-1.722 2.57-3.043 3.32-1.32.75-2.98 1.35-4.535 1.35-2.467 0-4.79-1.11-6.426-2.61-1.63-1.51-2.54-3.48-2.71-5.91h21.63v-.61c0-4.38-1.2-7.88-3.59-10.52-2.39-2.64-5.55-3.96-9.47-3.96m-8.56 11.29c.35-2.38 1.23-4.2 2.64-5.44 1.41-1.25 3.43-2.28 5.78-2.28s4.54.8 5.95 2.04c1.41 1.24 2.11 3.28 2.47 5.66H42.67"/>
    </g>
    <path fill="#6C95A3" d="M239.286 12.638c-3.57 0-6.57 1.315-9 3.946-2.433 2.63-3.648 5.874-3.648 9.73 0 3.86 1.21 7.094 3.634 9.705 2.423 2.61 5.427 3.91 9.014 3.91 1.854 0 3.517-.35 4.986-1.04 1.47-.7 2.703-1.72 3.7-3.06v3.46h8.4v-3.9h-3.754V17.23h3.753v-3.9h-8.39v3.405c-1.1-1.365-2.37-2.39-3.82-3.072-1.44-.683-3.06-1.025-4.86-1.025m.32 23.61c-2.48 0-4.56-.937-6.23-2.813-1.66-1.875-2.5-4.25-2.5-7.12 0-2.89.82-5.26 2.45-7.108 1.63-1.846 3.73-2.77 6.29-2.77 2.49 0 4.56.928 6.22 2.784 1.66 1.86 2.49 4.23 2.49 7.1 0 2.87-.83 5.25-2.49 7.12-1.66 1.88-3.73 2.82-6.22 2.82M266 1.5h-8.586v3.58h4.115v28.88c.09 4.81 3.59 5.673 6.09 5.673 1.4 0 2.49-.27 2.49-.27v-3.57s-.38.08-.91.08c-1.17 0-3.04-.37-3.21-2.75V1.5m12.1 5.25h-4.22v6.133h-4.32v3.57h4.32v16.525c-.1 5.458 3.21 6.584 5.15 6.584.79 0 1.49-.022 2.08-.063.59-.05 2.25-.11 2.76-.2v-3.77s-2.84.25-3.02.25c-1.19 0-1.95-.2-2.28-.6-.33-.4-.5-1.55-.5-3.46V16.45h5.37v-3.57h-5.37V6.75"/>
    <mask id="d" fill="#fff">
      <use xlink:href="#c"/>
    </mask>
    <path fill="#6C95A3" d="M294.13 1.494H286v3.412h3.658V35.79h-3.66v3.57h11.815v-3.57h-4.187l.058-14.31c.763-3.117 4.39-5.498 7.722-5.498.26 0 .516.015.77.044 1.298.15 3.183.615 4.06 1.672.643.777 2.395 1.705 2.452 7.408V35.79h-4.502v3.57H316v-3.57h-3.146l-.058-10.986s.343-5.685-2.55-8.98c-2.096-2.388-6.074-3.575-7.428-3.575-1.575 0-3.27.08-4.684.73-1.415.65-2.617 1.22-4.005 2.58V1.49M71.29 1.11c-6.08 0-10.78 1.67-14.1 5.01-3.32 3.34-4.98 8.125-4.98 14.345 0 4.666.94 8.494 2.83 11.484 1.89 3 4.13 5.08 6.73 6.27C64.38 39.41 67.73 40 71.83 40c3.38 0 6.165-.485 8.354-1.46 2.187-.975 4.02-2.42 5.495-4.335 1.48-1.914 3.75-5.703 3.75-9.285l-10.91-.154c-.52 2.377-1.16 3.393-2.3 4.642-1.14 1.248-2.83 1.87-5.06 1.87-2.3 0-4.09-.77-5.36-2.317-1.27-1.54-1.91-4.4-1.91-8.57 0-3.36.53-5.83 1.59-7.4 1.4-2.11 3.43-3.17 6.07-3.17 1.16 0 2.22.24 3.16.72s1.74 1.17 2.39 2.05c.394.53.77 1.37 1.13 2.52l11.16.16C88.367 9.24 85.21 5.91 82.49 4c-2.72-1.912-6.455-2.87-11.21-2.87m52.858.644h-11.83l-6.54 24.01-6.26-24.01H87.32l12.023 37.6h12.638l12.17-37.62m15.27-.64c-3.93 0-7.02.5-9.28 1.48-2.25.986-4.41 2.26-5.54 3.978-1.12 1.72-1.68 3.547-1.68 5.48 0 2.95.93 5.77 3.038 7.77 2.568 2.43 6.226 3.59 11.34 4.73 3.123.69 5.44.82 6.3 1.59.86.77.716 1.7.675 2.68-.083 2.046-2.912 2.752-4.58 2.77h-.092c-3.866 0-5.4-2.55-5.64-4.333l-11.38-.016c.326 3.8 1.123 6.62 3.593 9.08 2.47 2.46 6.913 3.69 13.332 3.69 3.654 0 6.683-.53 9.086-1.58 2.4-1.05 4.27-2.6 5.61-4.63 1.34-2.04 2-4.26 2-6.67 0-2.05-.5-3.91-1.51-5.57-1.01-1.66-2.71-2.64-4.91-3.76-2.21-1.12-5.99-2.018-11.09-3.11-2.06-.43-4.13-1.08-4.06-3.33.04-1.37 2.23-2.61 3.59-2.61 2.44 0 5.47 1.27 5.47 3.88l11.16-.04c-.48-3.9-1.894-7.015-4.425-8.8-2.53-1.788-6.21-2.68-11.03-2.68M47 10.7c-2-1.96-8.07-7.855-9.84-9.576C36.85.82 36.43.65 35.99.65h-3.33c-.463 0-.907.19-1.226.526l-7.072 7.45-.542.04-.542-.04-7.074-7.448C15.884.842 15.44.65 14.977.65h-3.335c-.44 0-.862.17-1.177.476-1.77 1.72-7.838 7.62-9.843 9.576-.4.39-.622.92-.622 1.477v3.55c0 .55.223 1.08.62 1.47L23.82 40l23.2-22.788c.397-.39.62-.92.62-1.474v-3.554c0-.556-.224-1.088-.622-1.477" mask="url(#d)"/>
  </g>
</svg>
