<svg xmlns="http://www.w3.org/2000/svg" width="273" height="271" viewBox="0 0 273 271" xmlns:xlink="http://www.w3.org/1999/xlink">
  <defs>
    <polygon id="a" points="61.414 0 0 0 0 10.857 61.414 10.857 61.414 0"/>
  </defs>
  <g fill="none" fill-rule="evenodd">
    <ellipse cx="136.924" cy="135.475" fill="#DFE8EB" rx="136.076" ry="135.475"/>
    <g transform="translate(40.5 41.557)">
      <polygon fill="#162A47" stroke="#162A47" stroke-width="3.6" points="97.398 156.169 109.916 144.755 101.036 125.09 107.005 119.374 97.398 109.623 97.398 104.304 94.778 106.964 92.158 104.304 92.158 109.623 82.551 119.374 88.519 125.09 79.639 144.755 92.158 156.169 92.158 160.946 94.778 158.558 97.398 160.946"/>
      <path fill="#FFFFFF" stroke="#162A47" stroke-width="4" d="M96.0652518,150.642827 L63.0863846,108.916102 C32.7395276,122.5069 3.98715152,153.478155 0.202091134,187.747203 L95.6739949,187.747203 L191.145899,187.747203 C187.383545,153.681548 158.739506,123.416094 128.670371,109.726207 L96.0652518,150.642827 Z"/>
      <path fill="#FEFEFE" d="M137.498476,64.7202255 C137.498476,36.1635547 118.859629,13.0133029 95.869798,13.0133029 C72.8782199,13.0133029 54.2411205,36.1635547 54.2411205,64.7202255 C54.2411205,93.2768964 72.8782199,116.427148 95.869798,116.427148 C118.859629,116.427148 137.498476,93.2768964 137.498476,64.7202255"/>
      <path stroke="#162A47" stroke-width="4" d="M137.498476,64.7202255 C137.498476,36.1635547 118.859629,13.0133029 95.869798,13.0133029 C72.8782199,13.0133029 54.2411205,36.1635547 54.2411205,64.7202255 C54.2411205,93.2768964 72.8782199,116.427148 95.869798,116.427148 C118.859629,116.427148 137.498476,93.2768964 137.498476,64.7202255 L137.498476,64.7202255 Z"/>
      <g transform="translate(57.674 21.246)"/>
      <polygon fill="#E5F3FF" points="155.957 159.734 148.71 159.734 148.71 152.521 138.818 152.521 138.818 159.734 131.57 159.734 131.57 169.579 138.818 169.579 138.818 176.791 148.71 176.791 148.71 169.579 155.957 169.579"/>
      <polygon stroke="#162A47" stroke-width="4" points="152.352 156.145 145.105 156.145 145.105 148.933 135.214 148.933 135.214 156.145 127.965 156.145 127.965 165.99 135.214 165.99 135.214 173.202 145.105 173.202 145.105 165.99 152.352 165.99"/>
      <path fill="#162A47" d="M57.8933288,19.0325434 C57.8933288,19.0325434 44.9827278,30.5660432 59.0423706,18.1097703 C73.1020135,5.65349743 104.34807,-14.5475764 130.624375,19.0325434 C130.624375,19.0325434 139.258046,23.2776983 145.326698,36.8739612 C151.395349,50.470224 138.47891,72.2409847 138.47891,72.2409847 C138.47891,72.2409847 137.88234,34.4013189 126.625015,32.605155 C119.705887,31.4998233 111.125015,38.9626064 104.193271,36.8739602 C97.0128055,34.7117448 86.896352,20.36576 65.2107706,29.274805 C56.7560613,32.7504989 52.4286776,63.4108919 52.4286776,63.4108919 C52.4286776,63.4108919 36.8079218,31.1122395 57.8933288,19.0325434 Z"/>
      <g stroke="#162A47" stroke-width="4" transform="translate(46.86 108.662)">
        <path d="M13.7391067.936388173C13.5933545 2.68410415 13.5174419 4.4623244 13.5174419 6.26387146 13.5174419 32.0166637 28.848756 52.8923594 47.7616279 52.8923594 66.6744998 52.8923594 82.005814 32.0166637 82.005814 6.26387146 82.005814 4.3151861 81.9177553 2.39341627 81.7461928.507533843M50.0893314 53.0820243C50.0893314 53.0820243 37.8751759 81.5089406 12.3396221 54.2950181"/>
        <path d="M14.42275,50.2924973 C14.42275,46.3269406 11.1947849,43.1132246 7.21164535,43.1132246 C3.22850581,43.1132246 0.000540697675,46.3269406 0.000540697675,50.2924973 C0.000540697675,54.2580541 3.22850581,57.47177 7.21164535,57.47177 C11.1947849,57.47177 14.42275,54.2580541 14.42275,50.2924973 L14.42275,50.2924973 Z"/>
      </g>
    </g>
  </g>
</svg>
