<svg xmlns="http://www.w3.org/2000/svg" viewBox="0 0 222 44" xmlns:xlink="http://www.w3.org/1999/xlink">
  <defs>
    <path id="a" d="M.036 43.963H222V.09H.036z"/>
  </defs>
  <g fill="none" fill-rule="evenodd" opacity=".649">
    <mask id="b" fill="#fff">
      <use xlink:href="#a"/>
    </mask>
    <path fill="#6C95A3" d="M101.01 9.92c-3.614 0-7.048 1.436-8.566 2.53-2.337-1.79-5.522-2.53-9.463-2.53-5.993 0-10.943 1.885-11.67 2.177V43.63h6.45c.635 0 1.146-.53 1.146-1.234v-25.34c1.362-.39 2.612-.573 3.738-.573 4.46 0 5.546 1.823 5.546 6.322v19.59c0 .573.444 1.235 1.15 1.235h5.314c.727 0 1.153-.572 1.153-1.234v-24.36c1.192-1.05 2.88-1.553 4.448-1.553 3.445 0 4.84 1.577 4.84 5.876v20.035c0 .52.384 1.234 1.145 1.234h6.44V21.3c0-8.467-5.186-11.38-11.67-11.38zM0 43.62h6.82c.51 0 1.15-.5 1.15-1.173v-18.33h12.585c2.096 0 3.645 1.73 3.645 3.51v14.82c0 .624.525 1.174 1.13 1.174h6.83V.09h-6.83c-.573 0-1.13.514-1.13 1.094v16.35H11.1c-1.74 0-3.13-1.462-3.13-3.1V1.184C7.97.77 7.556.09 6.82.09H0v43.53zm202.137-8.04c-1.402 1.2-2.495 1.978-5.468 2.075-4.25 0-6.076-2.64-6.076-8.28v-4.592c0-6.494 2.347-8.278 6.074-8.278 3.132 0 4.832.26 5.467.397V35.58zM196.67 9.95c-8.383 0-13.672 4.63-13.672 14.53v4.967c0 10.97 5.72 14.532 11.92 14.532 3.054 0 6.192-2.174 7.22-3.563v2.05c0 .524.462 1.153 1.14 1.153h6.463V11.847s-6.36-1.897-13.07-1.897zm-59.59 25.63c-1.4 1.2-2.493 1.978-5.467 2.075-4.25 0-6.076-2.64-6.076-8.28v-4.592c0-6.494 2.35-8.278 6.076-8.278 3.13 0 4.833.26 5.468.397V35.58zm-5.467-25.63c-8.38 0-13.67 4.63-13.67 14.53v4.967c0 10.97 5.72 14.532 11.92 14.532 3.052 0 6.19-2.174 7.218-3.563v2.05c0 .524.466 1.153 1.144 1.153h6.46V11.847s-6.36-1.896-13.07-1.896zm25.82 33.677c.615 0 1.197-.516 1.197-1.23v-25.27c1.87-.436 3.756-.645 5.65-.645 4.238 0 5.77 1.605 5.77 6.32v19.592c0 .803.6 1.23 1.148 1.23h6.476V22.752c0-9.694-5.023-12.843-13.163-12.843-6.503 0-12.94 1.91-13.476 2.06v31.66h6.4zM58.546 10.503c-.615 0-1.198.515-1.198 1.232v25.04c-1.87.44-3.755.648-5.65.648-4.237 0-5.77-1.606-5.77-6.32V11.736c0-.802-.6-1.232-1.148-1.232h-6.475v20.653C38.305 40.847 43.328 44 51.47 44c6.503 0 12.937-1.907 13.476-2.06V10.504h-6.4zm159 29.28h.616c.592 0 .828-.29.828-.69 0-.522-.49-.61-.92-.61h-.523v1.3zm.544-2c1.035 0 1.71.31 1.71 1.245 0 .65-.283 1.1-.865 1.338l.25.45c.204.358.458.733.765 1.154.052.077-.082.117-.297.117h-.246c-.254 0-.325-.05-.37-.102-.216-.295-.406-.587-.568-.878l-.37-.654h-.554v1.54c0 .043-.084.094-.246.094h-.332c-.16 0-.257-.05-.257-.095v-4.208h1.38zm-2.955 2.182c0 1.867 1.316 3.318 3.038 3.318 1.713 0 3.05-1.432 3.05-3.318 0-1.863-1.315-3.315-3.03-3.315-1.712 0-3.058 1.452-3.058 3.315zm6.865 0c0 2.213-1.68 3.985-3.818 3.985-2.15 0-3.85-1.772-3.85-3.985 0-2.217 1.693-3.985 3.86-3.985 2.148 0 3.808 1.768 3.808 3.985z" mask="url(#b)"/>
  </g>
</svg>
