<svg xmlns="http://www.w3.org/2000/svg" width="273" height="271" viewBox="0 0 273 271">
  <g fill="none" fill-rule="evenodd">
    <ellipse cx="136.076" cy="135.475" fill="#DFE8EB" opacity=".746" rx="136.076" ry="135.475"/>
    <g transform="translate(58 58)">
      <ellipse cx="54.971" cy="54.728" fill="#FFFFFF" rx="42.355" ry="42.168"/>
      <ellipse cx="42.355" cy="54.728" fill="#E5F3FF" rx="42.355" ry="42.168"/>
      <path fill="#FFFFFF" stroke="#162A47" stroke-width="3.6" d="M109.26743,95.7079054 L97.934407,106.990901 L143.453942,152.309499 C146.584581,155.426319 151.658128,155.426319 154.786965,152.309499 L154.786965,152.309499 C157.917605,149.194474 157.917605,144.143323 154.786965,141.026504 L109.26743,95.7079054 L109.26743,95.7079054 Z"/>
      <polygon fill="#FFFFFF" stroke="#162A47" stroke-width="3.6" points="96.673 88.584 90.78 94.451 100.654 104.283 106.548 98.415"/>
      <path fill="#FFFFFF" stroke="#162A47" stroke-width="3.6" d="M85.7629419,83.5899893 C68.9093953,100.369139 41.5843372,100.369139 24.7307907,83.5899893 C7.87724419,66.8108393 7.87724419,39.606402 24.7307907,22.8272521 C41.5843372,6.04810211 68.9093953,6.04810211 85.7629419,22.8272521 C102.616488,39.606402 102.616488,66.8108393 85.7629419,83.5899893 L85.7629419,83.5899893 Z M17.4566047,15.5851764 C-3.41612791,36.3639762 -3.41612791,70.0532651 17.4566047,90.8320649 C38.3275349,111.612659 72.1661977,111.612659 93.0371279,90.8320649 C113.90986,70.0532651 113.90986,36.3639762 93.0371279,15.5851764 C72.1661977,-5.19541769 38.3275349,-5.19541769 17.4566047,15.5851764 L17.4566047,15.5851764 Z"/>
      <path stroke="#162A47" stroke-width="1.8" d="M94.48025 96.8855501L99.1176337 92.2686372M97.7363314 100.127079L102.373715 95.5101658"/>
      <path stroke="#162A47" stroke-width="3.6" d="M36.3538081,27.7895812 C35.1102035,28.7082984 33.9188663,29.7292947 32.7906105,30.85257 C22.7534593,40.8454142 20.8393895,55.8624933 27.0502035,67.7735186" stroke-linecap="round"/>
    </g>
  </g>
</svg>
