<svg xmlns="http://www.w3.org/2000/svg" viewBox="0 0 216 64">
  <g fill="#6C95A3" fill-rule="evenodd" opacity=".649">
    <path d="M186.335 17.61v6.775c-.086.66-.98-.315-1.472-.636-1.757-1.13-4.28-2.35-7.998-1.91-4.906.58-8.8 4.96-8.837 10.58-.034 5.25 3.8 9.92 8.628 10.59 3.972.55 7.41-1.12 9.68-2.967v7.2c-12.144 5.196-26.67-2.26-25.25-16.73 1.066-10.828 13.768-18.35 25.25-12.914M89.34 16.33c2.01 5.45 4.23 10.7 6.31 16.09 2.36-5.17 4.43-10.647 6.52-16.09h10.1V48.1h-6.738V25.864c-3.486 7.222-6.553 14.864-9.68 22.442-3.42-7.29-6.475-14.937-9.68-22.442-.49 6.986-.07 14.895-.21 22.232h-6.73V16.34h10.1m45.028 0v5.502h-11.57v7.2c3.3.493 7.505.07 11.15.21v5.297h-11.15v7.83c3.437.49 7.785.07 11.576.21v5.5H116.06V16.34h18.308"/>
    <path d="M154.352 34.335c2.798 4.737 6.855 9.335 9.258 13.762-2.614-.59-4.822.807-7.155 0-1.043-.36-2.383-3.063-3.157-4.235-2.74-4.15-6.348-9.074-8.414-13.13 10.724 2.23 10.218-11.882-.632-9.314v26.677h-6.732V16.338c6.596.25 15.68-1.2 19.567 2.538 4.105 3.953 3.682 13.784-2.735 15.46m41.872-17.997v31.75h-6.735c.14-10.52-.28-21.6.21-31.76h6.52m18.09 0c.58-.03-.22 1.09-.63 1.69-.4.58-1.06 1.12-1.48 1.692-2.49 3.454-5.287 7.53-7.784 11.01 3.677 5.84 8.33 11.816 11.577 17.37-2.755-.57-4.985.78-7.365 0-1.137-.378-2.354-3.046-3.156-4.237-2.842-4.23-6.33-9.165-8.83-12.918 3.254-5.05 6.65-9.963 10.31-14.61h7.36m-198.405 0c.65 9.15 5.44 14.14 13.676 15.66-.13.63-.9.54-1.264.638-6.938 1.843-12.036 6.73-12.416 15.456C5.69 47.587-2.193 38.9.55 28.197c1.635-6.36 7.158-11.42 15.36-11.856C16.28 7.28 23.04.33 31.903.46 40.72.584 46.868 6.974 47.47 15.705c.018.3.033.598-.21.634H15.91m31.983 31.75c-.863 4.574-1.878 8.01-4.418 10.794-2.503 2.744-6.383 4.853-10.73 5.08-9.154.48-16.37-6.19-16.833-15.877h31.77c-.762-9.255-5.794-14.21-14.096-15.88 8.292-1.68 13.326-6.636 14.096-15.88 8.645.42 16.748 6.986 15.57 17.997-.784 7.318-6.87 13.32-15.36 13.764"/>
  </g>
</svg>
